<svg xmlns="http://www.w3.org/2000/svg" viewBox="0 0 120 120" fill="none">
  <rect width="120" height="120" rx="20" fill="#FEE2E2"/>
  <ellipse cx="60" cy="86" rx="38" ry="10" fill="#FCA5A5"/>
  <rect x="34" y="52" width="38" height="28" rx="8" fill="#FFFFFF"/>
  <path d="M72 58h8a8 8 0 0 1 0 16h-8" stroke="#EF4444" stroke-width="5"/>
  <path d="M43 46c-4-6 4-8 0-14M55 46c-4-6 4-8 0-14M67 46c-4-6 4-8 0-14" stroke="#B91C1C" stroke-width="3" stroke-linecap="round"/>
  <path d="M38 62h28" stroke="#FCA5A5" stroke-width="4" stroke-linecap="round"/>
  <path d="M26 78c10-14 25-14 34 0" fill="#FBBF24"/>
  <path d="M26 78h34" stroke="#92400E" stroke-width="4" stroke-linecap="round"/>
  <circle cx="86" cy="78" r="8" fill="#F59E0B"/>
</svg>
