<svg xmlns="http://www.w3.org/2000/svg" viewBox="0 0 120 120" fill="none">
  <rect width="120" height="120" rx="20" fill="#E0F2FE"/>
  <path d="M68 36c8 0 14 7 14 17 0 15-8 34-14 34-4 0-4-14-8-14s-4 14-8 14c-6 0-14-19-14-34 0-10 6-17 14-17 4 0 6 2 8 2s4-2 8-2z" fill="#FFFFFF" stroke="#0284C7" stroke-width="4" stroke-linejoin="round"/>
  <rect x="22" y="68" width="60" height="10" rx="5" transform="rotate(-18 22 68)" fill="#38BDF8"/>
  <rect x="72" y="51" width="22" height="18" rx="4" transform="rotate(-18 72 51)" fill="#0EA5E9"/>
  <path d="M76 55l3 10M83 53l3 10M90 51l3 10" stroke="#E0F2FE" stroke-width="3" stroke-linecap="round"/>
  <circle cx="38" cy="42" r="4" fill="#FFFFFF"/>
  <circle cx="29" cy="52" r="3" fill="#FFFFFF"/>
  <circle cx="42" cy="57" r="3" fill="#FFFFFF"/>
</svg>
